<?xml version="1.0" standalone="no"?>
<!DOCTYPE svg PUBLIC "-//W3C//DTD SVG 20010904//EN"
 "http://www.w3.org/TR/2001/REC-SVG-20010904/DTD/svg10.dtd">
<svg version="1.0" xmlns="http://www.w3.org/2000/svg"
 width="600.000000pt" height="600.000000pt" viewBox="0 0 600.000000 600.000000"
 preserveAspectRatio="xMidYMid meet">
<metadata>
Created by potrace 1.14, written by Peter Selinger 2001-2017
</metadata>
<g transform="translate(0.000000,600.000000) scale(0.100000,-0.100000)"
fill="#000000" stroke="none">
<path d="M2808 5805 c-2 -1 -39 -5 -83 -9 -44 -3 -91 -8 -105 -10 -14 -3 -45
-7 -70 -10 -101 -13 -114 -16 -305 -61 -594 -140 -1185 -492 -1558 -929 -23
-26 -52 -60 -65 -75 -158 -184 -357 -531 -451 -786 -39 -108 -85 -256 -95
-305 -3 -14 -8 -36 -11 -50 -20 -86 -41 -217 -52 -318 -15 -132 -8 -507 11
-607 2 -11 7 -42 11 -70 34 -245 155 -600 285 -841 226 -418 528 -750 932
-1025 64 -43 119 -79 123 -79 3 0 23 -11 45 -25 102 -64 332 -170 515 -238
100 -36 323 -102 380 -111 17 -3 41 -7 55 -11 27 -6 68 -13 115 -21 17 -2 41
-6 55 -9 14 -3 48 -7 75 -10 28 -2 61 -7 75 -11 42 -10 479 -12 570 -3 122 12
308 39 370 54 14 3 43 10 65 14 143 31 342 94 500 158 475 193 904 509 1194
878 39 50 74 95 79 100 91 113 270 433 332 595 69 179 123 357 144 475 3 17 8
41 11 55 3 14 8 43 11 65 3 22 8 51 10 65 19 108 26 488 11 618 -23 196 -71
407 -135 592 -158 457 -443 880 -805 1192 -113 97 -122 104 -194 157 -258 187
-583 351 -893 449 -114 36 -232 68 -281 76 -20 3 -42 8 -50 10 -37 14 -190 36
-379 56 -69 7 -435 11 -442 5z"/>
</g>
</svg>
